# xmcd
#
# Track frame offsets: 
#        150
#        16051
#        34712
#        48481
#        66078
#        88724
#        105225
#        124708
#        143616
#        159371
#        175080
#        191242
#
# Disc length: 2799 seconds
#
# Revision: 0
# Processed by: cddbd v1.5.2PL0 Copyright (c) Steve Scherf et al.
# Submitted via: ExactAudioCopy v0.99pb4
#
DISCID=910aed0c
DTITLE=Leisure Time - Second Truth
DYEAR=2009
DGENRE=Country
TTITLE0=Suds in the Bucket
TTITLE1=Nothing Ever Happens
TTITLE2=Jolene
TTITLE3=Cry
TTITLE4=Rose in Paradise
TTITLE5=Katie
TTITLE6=Truth No. 2
TTITLE7=I'm Coming Home
TTITLE8=This is the Life
TTITLE9=In the Ghetto
TTITLE10=Join around the Flag
TTITLE11=Long Time Gone
EXTD=
EXTT0=
EXTT1=
EXTT2=
EXTT3=
EXTT4=
EXTT5=
EXTT6=
EXTT7=
EXTT8=
EXTT9=
EXTT10=
EXTT11=
PLAYORDER=
